<?xml version="1.0" encoding="utf-8"?>
<!-- Generator: Adobe Illustrator 23.0.2, SVG Export Plug-In . SVG Version: 6.00 Build 0)  -->
<svg version="1.1" id="Layer_1" xmlns="http://www.w3.org/2000/svg" xmlns:xlink="http://www.w3.org/1999/xlink" x="0px" y="0px"
	 viewBox="0 0 1000 1000" style="enable-background:new 0 0 1000 1000;" xml:space="preserve">
<style type="text/css">
	.st0{fill:#FFFFFF;}
	.st1{clip-path:url(#SVGID_2_);}
	.st2{fill:#F05C5C;}
	.st3{opacity:0.57;fill:#FBB1A9;}
	.st4{opacity:0.55;}
	.st5{fill:#3ABFBF;}
</style>
<g>
	<path class="st0" d="M388.08,826.4c-0.18,0.07-0.37,0.13-0.56,0.2v-0.01C387.7,826.53,387.89,826.46,388.08,826.4z"/>
	<path d="M388.08,826.4c-0.18,0.06-0.37,0.13-0.56,0.19v0.01C387.7,826.53,387.89,826.47,388.08,826.4L388.08,826.4z"/>
</g>
<g>
	<g>
		<path class="st0" d="M392.61,454.13c-0.18,0.07-0.37,0.13-0.56,0.2v-0.01C392.24,454.26,392.43,454.19,392.61,454.13z"/>
		<path d="M392.61,454.13c-0.18,0.06-0.37,0.13-0.56,0.19v0.01C392.24,454.26,392.43,454.2,392.61,454.13L392.61,454.13z"/>
	</g>
	<path class="st2" d="M405.3,629.29L405.3,629.29c-9.19,0-16.65-7.45-16.65-16.65V316.82c0-9.19,7.45-16.65,16.65-16.65h0
		c9.19,0,16.65,7.45,16.65,16.65v295.83C421.94,621.84,414.49,629.29,405.3,629.29z"/>
	<path class="st3" d="M591.42,629.29L591.42,629.29c-9.19,0-16.65-7.45-16.65-16.65V316.82c0-9.19,7.45-16.65,16.65-16.65h0
		c9.19,0,16.65,7.45,16.65,16.65v295.83C608.06,621.84,600.61,629.29,591.42,629.29z"/>
	<g class="st4">
		<path class="st5" d="M695.79,627.61c-1.97,0.73-3.99,1.07-5.98,1.07c-7,0-13.58-4.31-16.15-11.26
			c-3.3-8.91,1.26-18.82,10.18-22.12c43.32-16.01,65.54-64.29,49.53-107.6c-3.56-9.63-9.3-18.78-16.58-26.44
			c-7.2-7.59-15.85-13.82-25.69-18.56c-9.81-4.71-20.27-7.67-31.09-8.78c-11.17-1.16-22.49-0.14-33.65,3
			c-6.22,1.76-12.09,3.43-17.69,5.06c-0.36,0.11-0.72,0.21-1.08,0.32c-1.08,0.31-2.15,0.63-3.21,0.94
			c-0.02,0.01-0.05,0.01-0.06,0.02c-1.97,0.58-3.9,1.15-5.81,1.73c-0.17,0.05-0.35,0.11-0.52,0.16c-0.46,0.14-0.92,0.27-1.38,0.41
			c-0.92,0.27-1.83,0.54-2.74,0.82c-0.09,0.03-0.19,0.06-0.29,0.09c-1,0.3-1.99,0.6-2.97,0.9c-0.26,0.08-0.51,0.16-0.76,0.23
			c-0.67,0.2-1.33,0.4-1.99,0.61c-0.06,0.02-0.12,0.04-0.19,0.06c-0.6,0.18-1.19,0.36-1.78,0.54c-0.65,0.2-1.3,0.4-1.95,0.61
			c-0.65,0.2-1.29,0.4-1.94,0.6c-0.03,0.02-0.06,0.02-0.1,0.03c-1.26,0.39-2.5,0.78-3.74,1.17c-0.64,0.2-1.27,0.4-1.91,0.6
			c-0.33,0.11-0.67,0.21-1.01,0.33c-0.08,0.02-0.16,0.05-0.23,0.08c-0.26,0.08-0.51,0.16-0.78,0.24v0.01
			c-1.16,0.36-2.32,0.74-3.49,1.12c-15.68,5.05-31.72,10.55-49.06,16.83c-15.06,5.45-31,11.46-48.72,18.38
			c-14.03,5.46-29.42,11.6-48.47,19.29l-2.53,1.03l-0.93,0.38l-2.11,0.85v0.01h-0.01c-1.28,0.52-2.56,1.04-3.84,1.56
			c-1.29,0.53-2.59,1.05-3.89,1.57c-1.29,0.52-2.6,1.04-3.9,1.56c-1.3,0.51-2.6,1.03-3.91,1.54c-1.3,0.51-2.61,1.02-3.93,1.52
			c-0.01,0-0.01,0-0.02,0.01c-1.21,0.46-2.42,0.92-3.64,1.36c-1.7,0.64-3.41,1.26-5.13,1.86c-0.67,0.24-1.34,0.48-2.01,0.7
			c-0.18,0.07-0.37,0.14-0.56,0.2c-0.18,0.06-0.37,0.13-0.56,0.19c-16.05,5.5-32.74,9.7-50.49,10.46
			c-33.5,1.41-66.07-11.21-89.44-34.66c-26.47-26.56-38.88-66.28-32.4-103.65c7.41-42.69,38.78-79.14,79.9-92.83
			c9.03-3,18.78,1.87,21.77,10.89c3.01,9.02-1.87,18.76-10.9,21.77c-29.26,9.75-51.58,35.67-56.84,66.04
			c-4.6,26.54,4.15,54.69,22.86,73.46c16.31,16.38,40.07,25.55,63.57,24.56c17.35-0.73,34.8-6.16,51.96-12.7v0.01
			c0.3-0.11,0.61-0.23,0.92-0.36c0.05-0.02,0.08-0.03,0.12-0.05c1.2-0.45,2.39-0.92,3.59-1.39c1.54-0.61,3.08-1.21,4.62-1.83
			c3.07-1.23,6.14-2.47,9.19-3.71l5.64-2.29c0.89-0.36,1.79-0.72,2.66-1.07c0.3-0.12,0.6-0.24,0.89-0.36
			c1.17-0.47,2.33-0.94,3.47-1.4c0.27-0.11,0.54-0.22,0.82-0.33c0.85-0.34,1.69-0.68,2.53-1.01v-0.02
			c14.55-5.85,26.97-10.77,38.49-15.26c17.99-7.01,34.19-13.13,49.51-18.67c17.73-6.42,34.15-12.06,50.22-17.24
			c1.88-0.61,3.78-1.22,5.67-1.82c2.75-0.87,5.55-1.75,8.38-2.62c0.67-0.2,1.32-0.41,2-0.61c0.24-0.08,0.48-0.15,0.73-0.23
			c0.42-0.13,0.85-0.26,1.29-0.39c2.04-0.63,4.11-1.26,6.2-1.88c1.36-0.41,2.73-0.82,4.12-1.23c1.52-0.45,3.06-0.91,4.62-1.37
			c0.73-0.21,1.46-0.42,2.19-0.64c0.61-0.18,1.23-0.36,1.85-0.54c0.22-0.06,0.43-0.12,0.65-0.19c0.25-0.08,0.5-0.14,0.76-0.22
			c0.85-0.25,1.71-0.5,2.57-0.75c0.56-0.16,1.12-0.33,1.69-0.48c0.37-0.11,0.74-0.21,1.11-0.32c0.2-0.06,0.39-0.11,0.59-0.17
			c1.34-0.39,2.7-0.77,4.07-1.17c2.72-0.78,5.5-1.57,8.35-2.37c15.37-4.33,31.03-5.71,46.53-4.12c14.78,1.53,29.07,5.56,42.46,12
			c13.63,6.54,25.66,15.26,35.76,25.88c10.47,11.02,18.73,24.24,23.9,38.22C788.25,536.89,756.92,605.01,695.79,627.61z"/>
	</g>
</g>
</svg>
