<?xml version="1.0" encoding="utf-8"?>
<!-- Generator: Adobe Illustrator 24.2.1, SVG Export Plug-In . SVG Version: 6.00 Build 0)  -->
<svg version="1.1" id="Layer_1" xmlns="http://www.w3.org/2000/svg" xmlns:xlink="http://www.w3.org/1999/xlink" x="0px" y="0px"
	 viewBox="0 0 561 35" style="enable-background:new 0 0 561 35;" xml:space="preserve">
<style type="text/css">
	.st0{fill:#7D51A1;}
</style>
<g id="Group_6" transform="translate(-537 -928.665)">
	<path id="Path_2" class="st0" d="M730.79,942.74c-4.86,0-7.4,3.01-9.26,5.55c-1.85,2.31-3.24,3.7-5.78,3.7
		c-2.55,0-3.7-1.39-5.79-3.7c-2.08-2.54-4.4-5.55-9.26-5.55s-7.4,3.01-9.26,5.55c-1.85,2.31-3.24,3.7-5.79,3.7s-3.7-1.39-5.78-3.7
		c-2.08-2.54-4.4-5.55-9.26-5.55c-4.86,0-7.4,3.01-9.26,5.55c-1.85,2.31-3.24,3.7-5.78,3.7c-2.55,0-3.7-1.39-5.79-3.7
		c-2.08-2.54-4.4-5.55-9.26-5.55c-4.86,0-7.4,3.01-9.26,5.55c-1.85,2.31-3.24,3.7-5.79,3.7s-3.7-1.39-5.78-3.7
		c-2.08-2.55-4.4-5.55-9.26-5.55s-7.4,3.01-9.26,5.55c-1.85,2.31-3.24,3.7-5.78,3.7c-2.55,0-3.7-1.39-5.79-3.7
		c-2.08-2.55-4.4-5.55-9.25-5.55c-4.85,0-7.4,3.01-9.26,5.55c-1.85,2.31-3.24,3.7-5.78,3.7c-2.55,0-3.7-1.39-5.79-3.7
		c-2.09-2.55-4.4-5.55-9.26-5.55c-1.21-0.07-2.24,0.84-2.31,2.05c-0.01,0.09-0.01,0.18,0,0.26c-0.07,1.21,0.84,2.24,2.05,2.31
		c0.09,0.01,0.18,0.01,0.26,0c2.55,0,3.7,1.39,5.79,3.7c2.08,2.55,4.4,5.55,9.26,5.55s7.4-3.01,9.26-5.55
		c1.85-2.31,3.24-3.7,5.79-3.7s3.7,1.39,5.78,3.7c2.08,2.55,4.4,5.55,9.26,5.55c4.86,0,7.4-3.01,9.26-5.55
		c1.85-2.31,3.24-3.7,5.78-3.7c2.55,0,3.7,1.39,5.79,3.7c2.08,2.55,4.4,5.55,9.26,5.55s7.4-3.01,9.26-5.55
		c1.85-2.31,3.24-3.7,5.79-3.7c2.54,0,3.7,1.39,5.78,3.7c2.08,2.55,4.4,5.55,9.26,5.55c4.86,0,7.4-3.01,9.26-5.55
		c1.85-2.31,3.24-3.7,5.78-3.7c2.55,0,3.7,1.39,5.79,3.7c2.08,2.55,4.4,5.55,9.26,5.55s7.4-3.01,9.26-5.55
		c1.85-2.31,3.24-3.7,5.79-3.7s3.7,1.39,5.78,3.7c2.08,2.55,4.4,5.55,9.26,5.55c4.86,0,7.4-3.01,9.26-5.55
		c1.85-2.31,3.24-3.7,5.78-3.7c1.21,0.07,2.24-0.84,2.31-2.05c0.01-0.09,0.01-0.18,0-0.26c0.07-1.21-0.84-2.24-2.05-2.31
		C730.96,942.73,730.87,942.73,730.79,942.74z"/>
	<path id="Path_7" class="st0" d="M911.79,942.74c-4.86,0-7.4,3.01-9.26,5.55c-1.85,2.31-3.24,3.7-5.78,3.7
		c-2.55,0-3.7-1.39-5.79-3.7c-2.08-2.54-4.4-5.55-9.26-5.55s-7.4,3.01-9.26,5.55c-1.85,2.31-3.24,3.7-5.79,3.7s-3.7-1.39-5.78-3.7
		c-2.08-2.54-4.4-5.55-9.26-5.55c-4.86,0-7.4,3.01-9.26,5.55c-1.85,2.31-3.24,3.7-5.78,3.7c-2.55,0-3.7-1.39-5.79-3.7
		c-2.08-2.54-4.4-5.55-9.26-5.55c-4.86,0-7.4,3.01-9.26,5.55c-1.85,2.31-3.24,3.7-5.79,3.7s-3.7-1.39-5.78-3.7
		c-2.08-2.55-4.4-5.55-9.26-5.55s-7.4,3.01-9.26,5.55c-1.85,2.31-3.24,3.7-5.78,3.7c-2.55,0-3.7-1.39-5.79-3.7
		c-2.08-2.55-4.4-5.55-9.25-5.55c-4.85,0-7.4,3.01-9.26,5.55c-1.85,2.31-3.24,3.7-5.78,3.7c-2.55,0-3.7-1.39-5.79-3.7
		c-2.09-2.55-4.4-5.55-9.26-5.55c-1.21-0.07-2.24,0.84-2.31,2.05c-0.01,0.09-0.01,0.18,0,0.26c-0.07,1.21,0.84,2.24,2.05,2.31
		c0.09,0.01,0.18,0.01,0.26,0c2.55,0,3.7,1.39,5.79,3.7c2.08,2.55,4.4,5.55,9.26,5.55s7.4-3.01,9.26-5.55
		c1.85-2.31,3.24-3.7,5.79-3.7s3.7,1.39,5.78,3.7c2.08,2.55,4.4,5.55,9.26,5.55c4.86,0,7.4-3.01,9.26-5.55
		c1.85-2.31,3.24-3.7,5.78-3.7c2.55,0,3.7,1.39,5.79,3.7c2.08,2.55,4.4,5.55,9.26,5.55s7.4-3.01,9.26-5.55
		c1.85-2.31,3.24-3.7,5.79-3.7c2.54,0,3.7,1.39,5.78,3.7c2.08,2.55,4.4,5.55,9.26,5.55c4.86,0,7.4-3.01,9.26-5.55
		c1.85-2.31,3.24-3.7,5.78-3.7c2.55,0,3.7,1.39,5.79,3.7c2.08,2.55,4.4,5.55,9.26,5.55s7.4-3.01,9.26-5.55
		c1.85-2.31,3.24-3.7,5.79-3.7s3.7,1.39,5.78,3.7c2.08,2.55,4.4,5.55,9.26,5.55c4.86,0,7.4-3.01,9.26-5.55
		c1.85-2.31,3.24-3.7,5.78-3.7c1.21,0.07,2.24-0.84,2.31-2.05c0.01-0.09,0.01-0.18,0-0.26c0.07-1.21-0.84-2.24-2.05-2.31
		C911.96,942.73,911.87,942.73,911.79,942.74z"/>
	<path id="Path_8" class="st0" d="M1091.79,942.74c-4.86,0-7.4,3.01-9.26,5.55c-1.85,2.31-3.24,3.7-5.79,3.7
		c-2.55,0-3.7-1.39-5.79-3.7c-2.08-2.54-4.4-5.55-9.26-5.55s-7.4,3.01-9.26,5.55c-1.85,2.31-3.24,3.7-5.79,3.7s-3.7-1.39-5.79-3.7
		c-2.08-2.54-4.4-5.55-9.26-5.55c-4.86,0-7.4,3.01-9.26,5.55c-1.85,2.31-3.24,3.7-5.78,3.7c-2.55,0-3.7-1.39-5.79-3.7
		c-2.08-2.54-4.4-5.55-9.26-5.55c-4.86,0-7.4,3.01-9.26,5.55c-1.85,2.31-3.24,3.7-5.79,3.7s-3.7-1.39-5.78-3.7
		c-2.08-2.55-4.4-5.55-9.26-5.55s-7.4,3.01-9.26,5.55c-1.85,2.31-3.24,3.7-5.78,3.7c-2.55,0-3.7-1.39-5.79-3.7
		c-2.08-2.55-4.4-5.55-9.25-5.55c-4.85,0-7.4,3.01-9.26,5.55c-1.85,2.31-3.24,3.7-5.78,3.7c-2.55,0-3.7-1.39-5.79-3.7
		c-2.09-2.55-4.4-5.55-9.26-5.55c-1.21-0.07-2.24,0.84-2.31,2.05c-0.01,0.09-0.01,0.18,0,0.26c-0.07,1.21,0.84,2.24,2.05,2.31
		c0.09,0.01,0.18,0.01,0.26,0c2.55,0,3.7,1.39,5.79,3.7c2.08,2.55,4.4,5.55,9.26,5.55s7.4-3.01,9.26-5.55
		c1.85-2.31,3.24-3.7,5.79-3.7s3.7,1.39,5.78,3.7c2.08,2.55,4.4,5.55,9.26,5.55c4.86,0,7.4-3.01,9.26-5.55
		c1.85-2.31,3.24-3.7,5.78-3.7c2.55,0,3.7,1.39,5.79,3.7c2.08,2.55,4.4,5.55,9.26,5.55s7.4-3.01,9.26-5.55
		c1.85-2.31,3.24-3.7,5.79-3.7c2.54,0,3.7,1.39,5.78,3.7c2.08,2.55,4.4,5.55,9.26,5.55c4.86,0,7.4-3.01,9.26-5.55
		c1.85-2.31,3.24-3.7,5.79-3.7c2.55,0,3.7,1.39,5.79,3.7c2.08,2.55,4.4,5.55,9.26,5.55s7.4-3.01,9.26-5.55
		c1.85-2.31,3.24-3.7,5.79-3.7s3.7,1.39,5.79,3.7c2.08,2.55,4.4,5.55,9.26,5.55c4.86,0,7.4-3.01,9.26-5.55
		c1.85-2.31,3.24-3.7,5.79-3.7c1.21,0.07,2.24-0.84,2.31-2.05c0.01-0.09,0.01-0.18,0-0.26c0.07-1.21-0.84-2.24-2.05-2.31
		C1091.96,942.73,1091.87,942.73,1091.79,942.74z"/>
</g>
</svg>
