<?xml version="1.0" encoding="utf-8"?>
<!-- Generator: Adobe Illustrator 24.0.1, SVG Export Plug-In . SVG Version: 6.00 Build 0)  -->
<svg version="1.1" id="Layer_1" xmlns="http://www.w3.org/2000/svg" xmlns:xlink="http://www.w3.org/1999/xlink" x="0px" y="0px"
	 viewBox="0 0 586.36 1000" style="enable-background:new 0 0 586.36 1000;" xml:space="preserve">
<style type="text/css">
	.st0{fill:#292C6A;}
	.st1{fill:#EE6B62;}
	.st2{fill:#2CBCB2;}
</style>
<g>
	<path class="st0" d="M225.43,12.16c209.43-41.12,355.18,110.56,356.02,267.32C581.45,279.48,271.97,334.17,225.43,12.16"/>
	<path class="st1" d="M201.87,17.29C189,58.93,182.66,102.59,187.4,146.04c4.17,38.24,16.43,75.13,34.43,109.05
		c17.97,33.87,41.27,64.67,66.86,93.13c25.96,28.88,54.36,55.47,83.38,81.23c27.81,24.68,56.31,48.56,84,73.37
		c24.25,21.72,48.21,44.17,68.72,69.54c31.39,38.83,50.31,87.73,52.25,137.67c1.53,39.45-6.87,78.98-22.57,115.11
		c-16.3,37.51-40.48,71.57-70.41,99.42c-31.02,28.86-68.28,50.9-108.78,63.48c-44.49,13.82-91.95,15.76-137.67,7.31
		c-15.16-2.8-30.11-6.7-44.75-11.53l0.03,0.19c391.98-198.2-23.36-434-135.87-607.31C-30.39,237.63,52.06,71.18,201.87,17.29
		C201.87,17.29,201.87,17.29,201.87,17.29z"/>
	<path class="st2" d="M165.35,967.26C-26.79,872.98-32.03,645.15,65.74,535.07C65.74,535.07,332.56,710.25,165.35,967.26z"/>
</g>
</svg>
