<?xml version="1.0" encoding="utf-8"?>
<!-- Generator: Adobe Illustrator 24.0.2, SVG Export Plug-In . SVG Version: 6.00 Build 0)  -->
<svg version="1.1" id="Layer_1" xmlns="http://www.w3.org/2000/svg" xmlns:xlink="http://www.w3.org/1999/xlink" x="0px" y="0px"
	 viewBox="0 0 94.5 162.9" style="enable-background:new 0 0 94.5 162.9;" xml:space="preserve">
<style type="text/css">
	.st0{fill:#292C6A;}
	.st1{fill:#EE6B62;}
	.st2{fill:#2CBCB2;}
</style>
<g>
	<path class="st0" d="M36.6,1.1C71-5.6,95,19.3,95.2,45.1C95.2,45.1,44.2,54.1,36.6,1.1"/>
	<path class="st1" d="M32.7,2c-2.1,6.8-3.2,14-2.4,21.2c0.7,6.3,2.7,12.4,5.7,18c3,5.6,6.8,10.6,11,15.3c4.3,4.8,9,9.1,13.7,13.4
		c4.6,4.1,9.3,8,13.8,12.1c4,3.6,7.9,7.3,11.3,11.4c5.2,6.4,8.3,14.4,8.6,22.7c0.2,6.5-1.1,13-3.7,18.9c-2.7,6.2-6.7,11.8-11.6,16.4
		c-5.1,4.8-11.2,8.4-17.9,10.5c-7.3,2.3-15.1,2.6-22.7,1.2c-2.5-0.5-5-1.1-7.4-1.9v0c64.5-32.6-3.9-71.4-22.4-100
		C-5.5,38.2,8,10.8,32.7,2L32.7,2z"/>
	<path class="st2" d="M26.7,158.3c-31.6-15.5-32.5-53-16.4-71.1C10.3,87.2,54.2,116,26.7,158.3z"/>
</g>
</svg>
