<?xml version="1.0" encoding="utf-8"?>
<!-- Generator: Adobe Illustrator 24.2.1, SVG Export Plug-In . SVG Version: 6.00 Build 0)  -->
<svg version="1.1" id="Layer_1" xmlns="http://www.w3.org/2000/svg" xmlns:xlink="http://www.w3.org/1999/xlink" x="0px" y="0px"
	 viewBox="0 0 100 11.1" style="enable-background:new 0 0 100 11.1;" xml:space="preserve">
<style type="text/css">
	.st0{fill:#EE6B62;}
</style>
<path class="st0" d="M89,3.9c-2.1,0-3.2,1.3-4,2.4c-0.8,1-1.4,1.6-2.5,1.6S80.9,7.3,80,6.3c-0.9-1.1-1.9-2.4-4-2.4s-3.2,1.3-4,2.4
	c-0.8,1-1.4,1.6-2.5,1.6S67.9,7.3,67,6.3c-0.9-1.1-1.9-2.4-4-2.4s-3.2,1.3-4,2.4c-0.8,1-1.4,1.6-2.5,1.6S54.9,7.3,54,6.3
	c-0.9-1.1-1.9-2.4-4-2.4s-3.2,1.3-4,2.4c-0.8,1-1.4,1.6-2.5,1.6S41.9,7.3,41,6.3c-0.9-1.1-1.9-2.4-4-2.4s-3.2,1.3-4,2.4
	c-0.8,1-1.4,1.6-2.5,1.6S28.9,7.3,28,6.3c-0.9-1.1-1.9-2.4-4-2.4s-3.2,1.3-4,2.4c-0.8,1-1.4,1.6-2.5,1.6S15.9,7.3,15,6.3
	c-0.9-1.1-1.9-2.4-4-2.4c-0.6,0-1,0.4-1,1s0.4,1,1,1c1.1,0,1.6,0.6,2.5,1.6c0.9,1.1,1.9,2.4,4,2.4s3.2-1.3,4-2.4
	c0.8-1,1.4-1.6,2.5-1.6s1.6,0.6,2.5,1.6c0.9,1.1,1.9,2.4,4,2.4s3.2-1.3,4-2.4c0.8-1,1.4-1.6,2.5-1.6s1.6,0.6,2.5,1.6
	c0.9,1.1,1.9,2.4,4,2.4s3.2-1.3,4-2.4c0.8-1,1.4-1.6,2.5-1.6s1.6,0.6,2.5,1.6c0.9,1.1,1.9,2.4,4,2.4s3.2-1.3,4-2.4
	c0.8-1,1.4-1.6,2.5-1.6s1.6,0.6,2.5,1.6c0.9,1.1,1.9,2.4,4,2.4s3.2-1.3,4-2.4c0.8-1,1.4-1.6,2.5-1.6s1.6,0.6,2.5,1.6
	c0.9,1.1,1.9,2.4,4,2.4s3.2-1.3,4-2.4c0.8-1,1.4-1.6,2.5-1.6c0.6,0,1-0.4,1-1S89.6,3.9,89,3.9z"/>
</svg>
