<?xml version="1.0" encoding="utf-8"?>
<!-- Generator: Adobe Illustrator 24.2.1, SVG Export Plug-In . SVG Version: 6.00 Build 0)  -->
<svg version="1.1" id="Layer_1" xmlns="http://www.w3.org/2000/svg" xmlns:xlink="http://www.w3.org/1999/xlink" x="0px" y="0px"
	 viewBox="0 0 599.4 16.4" style="enable-background:new 0 0 599.4 16.4;" xml:space="preserve">
<style type="text/css">
	.st0{fill:#E2E1E6;}
</style>
<g>
	<g>
		<g>
			<path class="st0" d="M78,4.6c-2,0-3,1.2-3.8,2.2c-0.8,1-1.3,1.5-2.3,1.5s-1.5-0.6-2.3-1.5c-0.8-1-1.8-2.2-3.8-2.2
				c-2,0-3,1.2-3.8,2.2c-0.8,1-1.3,1.5-2.3,1.5c-1,0-1.5-0.6-2.3-1.5c-0.8-1-1.8-2.2-3.8-2.2c-2,0-3,1.2-3.8,2.2
				c-0.8,1-1.3,1.5-2.3,1.5c-1,0-1.5-0.6-2.3-1.5c-0.8-1-1.8-2.2-3.8-2.2c-2,0-3,1.2-3.8,2.2c-0.8,1-1.3,1.5-2.3,1.5
				c-1,0-1.5-0.6-2.3-1.5C32,5.9,31,4.6,29,4.6c-2,0-3,1.2-3.8,2.2c-0.8,1-1.3,1.5-2.3,1.5c-1,0-1.5-0.6-2.3-1.5
				c-0.8-1-1.8-2.2-3.8-2.2c-2,0-3,1.2-3.8,2.2c-0.8,1-1.3,1.5-2.3,1.5S9.1,7.8,8.3,6.9c-0.8-1-1.8-2.2-3.8-2.2
				C4,4.6,3.6,5.1,3.6,5.6S4,6.5,4.5,6.5c1,0,1.5,0.6,2.3,1.5c0.8,1,1.8,2.2,3.8,2.2s3-1.2,3.8-2.2c0.8-1,1.3-1.5,2.3-1.5
				c1,0,1.5,0.6,2.3,1.5c0.8,1,1.8,2.2,3.8,2.2c2,0,3-1.2,3.8-2.2c0.8-1,1.3-1.5,2.3-1.5c1,0,1.5,0.6,2.3,1.5c0.8,1,1.8,2.2,3.8,2.2
				c2,0,3-1.2,3.8-2.2c0.8-1,1.3-1.5,2.3-1.5c1,0,1.5,0.6,2.3,1.5c0.8,1,1.8,2.2,3.8,2.2c2,0,3-1.2,3.8-2.2c0.8-1,1.3-1.5,2.3-1.5
				c1,0,1.5,0.6,2.3,1.5c0.8,1,1.8,2.2,3.8,2.2c2,0,3-1.2,3.8-2.2c0.8-1,1.3-1.5,2.3-1.5c1,0,1.5,0.6,2.3,1.5c0.8,1,1.8,2.2,3.8,2.2
				c2,0,3-1.2,3.8-2.2c0.8-1,1.3-1.5,2.3-1.5c0.5,0,0.9-0.4,0.9-0.9S78.5,4.6,78,4.6z"/>
		</g>
		<g>
			<path class="st0" d="M151.4,4.6c-2,0-3,1.2-3.8,2.2c-0.8,1-1.3,1.5-2.3,1.5c-1,0-1.5-0.6-2.3-1.5c-0.8-1-1.8-2.2-3.8-2.2
				c-2,0-3,1.2-3.8,2.2c-0.8,1-1.3,1.5-2.3,1.5c-1,0-1.5-0.6-2.3-1.5c-0.8-1-1.8-2.2-3.8-2.2c-2,0-3,1.2-3.8,2.2
				c-0.8,1-1.3,1.5-2.3,1.5c-1,0-1.5-0.6-2.3-1.5c-0.8-1-1.8-2.2-3.8-2.2c-2,0-3,1.2-3.8,2.2c-0.8,1-1.3,1.5-2.3,1.5
				c-1,0-1.5-0.6-2.3-1.5c-0.8-1-1.8-2.2-3.8-2.2c-2,0-3,1.2-3.8,2.2c-0.8,1-1.3,1.5-2.3,1.5c-1,0-1.5-0.6-2.3-1.5
				c-0.8-1-1.8-2.2-3.8-2.2c-2,0-3,1.2-3.8,2.2c-0.8,1-1.3,1.5-2.3,1.5c-1,0-1.5-0.6-2.3-1.5C81,5.9,80,4.6,78,4.6
				c-0.5,0-0.9,0.4-0.9,0.9s0.4,0.9,0.9,0.9c1,0,1.5,0.6,2.3,1.5c0.8,1,1.8,2.2,3.8,2.2s3-1.2,3.8-2.2c0.8-1,1.3-1.5,2.3-1.5
				c1,0,1.5,0.6,2.3,1.5c0.8,1,1.8,2.2,3.8,2.2c2,0,3-1.2,3.8-2.2c0.8-1,1.3-1.5,2.3-1.5c1,0,1.5,0.6,2.3,1.5c0.8,1,1.8,2.2,3.8,2.2
				c2,0,3-1.2,3.8-2.2c0.8-1,1.3-1.5,2.3-1.5c1,0,1.5,0.6,2.3,1.5c0.8,1,1.8,2.2,3.8,2.2c2,0,3-1.2,3.8-2.2c0.8-1,1.3-1.5,2.3-1.5
				c1,0,1.5,0.6,2.3,1.5c0.8,1,1.8,2.2,3.8,2.2c2,0,3-1.2,3.8-2.2c0.8-1,1.3-1.5,2.3-1.5c1,0,1.5,0.6,2.3,1.5c0.8,1,1.8,2.2,3.8,2.2
				c2,0,3-1.2,3.8-2.2c0.8-1,1.3-1.5,2.3-1.5c0.5,0,0.9-0.4,0.9-0.9S152,4.6,151.4,4.6z"/>
		</g>
	</g>
	<g>
		<g>
			<path class="st0" d="M225.1,4.6c-2,0-3,1.2-3.8,2.2c-0.8,1-1.3,1.5-2.3,1.5c-1,0-1.5-0.6-2.3-1.5c-0.8-1-1.8-2.2-3.8-2.2
				c-2,0-3,1.2-3.8,2.2c-0.8,1-1.3,1.5-2.3,1.5c-1,0-1.5-0.6-2.3-1.5c-0.8-1-1.8-2.2-3.8-2.2c-2,0-3,1.2-3.8,2.2
				c-0.8,1-1.3,1.5-2.3,1.5c-1,0-1.5-0.6-2.3-1.5c-0.8-1-1.8-2.2-3.8-2.2c-2,0-3,1.2-3.8,2.2c-0.8,1-1.3,1.5-2.3,1.5
				c-1,0-1.5-0.6-2.3-1.5c-0.8-1-1.8-2.2-3.8-2.2c-2,0-3,1.2-3.8,2.2c-0.8,1-1.3,1.5-2.3,1.5c-1,0-1.5-0.6-2.3-1.5
				c-0.8-1-1.8-2.2-3.8-2.2c-2,0-3,1.2-3.8,2.2c-0.8,1-1.3,1.5-2.3,1.5s-1.5-0.6-2.3-1.5c-0.8-1-1.8-2.2-3.8-2.2
				c-0.5,0-0.9,0.4-0.9,0.9s0.4,0.9,0.9,0.9c1,0,1.5,0.6,2.3,1.5c0.8,1,1.8,2.2,3.8,2.2c2,0,3-1.2,3.8-2.2c0.8-1,1.3-1.5,2.3-1.5
				c1,0,1.5,0.6,2.3,1.5c0.8,1,1.8,2.2,3.8,2.2c2,0,3-1.2,3.8-2.2c0.8-1,1.3-1.5,2.3-1.5c1,0,1.5,0.6,2.3,1.5c0.8,1,1.8,2.2,3.8,2.2
				c2,0,3-1.2,3.8-2.2c0.8-1,1.3-1.5,2.3-1.5c1,0,1.5,0.6,2.3,1.5c0.8,1,1.8,2.2,3.8,2.2c2,0,3-1.2,3.8-2.2c0.8-1,1.3-1.5,2.3-1.5
				c1,0,1.5,0.6,2.3,1.5c0.8,1,1.8,2.2,3.8,2.2c2,0,3-1.2,3.8-2.2c0.8-1,1.3-1.5,2.3-1.5c1,0,1.5,0.6,2.3,1.5c0.8,1,1.8,2.2,3.8,2.2
				c2,0,3-1.2,3.8-2.2c0.8-1,1.3-1.5,2.3-1.5c0.5,0,0.9-0.4,0.9-0.9S225.6,4.6,225.1,4.6z"/>
		</g>
		<g>
			<path class="st0" d="M298.5,4.6c-2,0-3,1.2-3.8,2.2c-0.8,1-1.3,1.5-2.3,1.5c-1,0-1.5-0.6-2.3-1.5c-0.8-1-1.8-2.2-3.8-2.2
				c-2,0-3,1.2-3.8,2.2c-0.8,1-1.3,1.5-2.3,1.5c-1,0-1.5-0.6-2.3-1.5c-0.8-1-1.8-2.2-3.8-2.2c-2,0-3,1.2-3.8,2.2
				c-0.8,1-1.3,1.5-2.3,1.5c-1,0-1.5-0.6-2.3-1.5c-0.8-1-1.8-2.2-3.8-2.2c-2,0-3,1.2-3.8,2.2c-0.8,1-1.3,1.5-2.3,1.5
				c-1,0-1.5-0.6-2.3-1.5c-0.8-1-1.8-2.2-3.8-2.2c-2,0-3,1.2-3.8,2.2c-0.8,1-1.3,1.5-2.3,1.5c-1,0-1.5-0.6-2.3-1.5
				c-0.8-1-1.8-2.2-3.8-2.2c-2,0-3,1.2-3.8,2.2c-0.8,1-1.3,1.5-2.3,1.5s-1.5-0.6-2.3-1.5c-0.8-1-1.8-2.2-3.8-2.2
				c-0.5,0-0.9,0.4-0.9,0.9s0.4,0.9,0.9,0.9c1,0,1.5,0.6,2.3,1.5c0.8,1,1.8,2.2,3.8,2.2s3-1.2,3.8-2.2c0.8-1,1.3-1.5,2.3-1.5
				c1,0,1.5,0.6,2.3,1.5c0.8,1,1.8,2.2,3.8,2.2c2,0,3-1.2,3.8-2.2c0.8-1,1.3-1.5,2.3-1.5c1,0,1.5,0.6,2.3,1.5c0.8,1,1.8,2.2,3.8,2.2
				c2,0,3-1.2,3.8-2.2c0.8-1,1.3-1.5,2.3-1.5c1,0,1.5,0.6,2.3,1.5c0.8,1,1.8,2.2,3.8,2.2c2,0,3-1.2,3.8-2.2c0.8-1,1.3-1.5,2.3-1.5
				c1,0,1.5,0.6,2.3,1.5c0.8,1,1.8,2.2,3.8,2.2c2,0,3-1.2,3.8-2.2c0.8-1,1.3-1.5,2.3-1.5c1,0,1.5,0.6,2.3,1.5c0.8,1,1.8,2.2,3.8,2.2
				c2,0,3-1.2,3.8-2.2c0.8-1,1.3-1.5,2.3-1.5c0.5,0,0.9-0.4,0.9-0.9S299,4.6,298.5,4.6z"/>
		</g>
	</g>
	<g>
		<g>
			<path class="st0" d="M371.5,4.6c-2,0-3,1.2-3.8,2.2c-0.8,1-1.3,1.5-2.3,1.5s-1.5-0.6-2.3-1.5c-0.8-1-1.8-2.2-3.8-2.2
				c-2,0-3,1.2-3.8,2.2c-0.8,1-1.3,1.5-2.3,1.5c-1,0-1.5-0.6-2.3-1.5c-0.8-1-1.8-2.2-3.8-2.2s-3,1.2-3.8,2.2c-0.8,1-1.3,1.5-2.3,1.5
				c-1,0-1.5-0.6-2.3-1.5c-0.8-1-1.8-2.2-3.8-2.2c-2,0-3,1.2-3.8,2.2c-0.8,1-1.3,1.5-2.3,1.5c-1,0-1.5-0.6-2.3-1.5
				c-0.8-1-1.8-2.2-3.8-2.2c-2,0-3,1.2-3.8,2.2c-0.8,1-1.3,1.5-2.3,1.5c-1,0-1.5-0.6-2.3-1.5c-0.8-1-1.8-2.2-3.8-2.2
				c-2,0-3,1.2-3.8,2.2c-0.8,1-1.3,1.5-2.3,1.5s-1.5-0.6-2.3-1.5c-0.8-1-1.8-2.2-3.8-2.2c-0.5,0-0.9,0.4-0.9,0.9s0.4,0.9,0.9,0.9
				c1,0,1.5,0.6,2.3,1.5c0.8,1,1.8,2.2,3.8,2.2s3-1.2,3.8-2.2c0.8-1,1.3-1.5,2.3-1.5c1,0,1.5,0.6,2.3,1.5c0.8,1,1.8,2.2,3.8,2.2
				c2,0,3-1.2,3.8-2.2c0.8-1,1.3-1.5,2.3-1.5c1,0,1.5,0.6,2.3,1.5c0.8,1,1.8,2.2,3.8,2.2c2,0,3-1.2,3.8-2.2c0.8-1,1.3-1.5,2.3-1.5
				c1,0,1.5,0.6,2.3,1.5c0.8,1,1.8,2.2,3.8,2.2c2,0,3-1.2,3.8-2.2c0.8-1,1.3-1.5,2.3-1.5c1,0,1.5,0.6,2.3,1.5c0.8,1,1.8,2.2,3.8,2.2
				c2,0,3-1.2,3.8-2.2c0.8-1,1.3-1.5,2.3-1.5c1,0,1.5,0.6,2.3,1.5c0.8,1,1.8,2.2,3.8,2.2c2,0,3-1.2,3.8-2.2c0.8-1,1.3-1.5,2.3-1.5
				c0.5,0,0.9-0.4,0.9-0.9S372,4.6,371.5,4.6z"/>
		</g>
		<g>
			<path class="st0" d="M444.9,4.6c-2,0-3,1.2-3.8,2.2c-0.8,1-1.3,1.5-2.3,1.5s-1.5-0.6-2.3-1.5c-0.8-1-1.8-2.2-3.8-2.2
				c-2,0-3,1.2-3.8,2.2c-0.8,1-1.3,1.5-2.3,1.5c-1,0-1.5-0.6-2.3-1.5c-0.8-1-1.8-2.2-3.8-2.2s-3,1.2-3.8,2.2c-0.8,1-1.3,1.5-2.3,1.5
				c-1,0-1.5-0.6-2.3-1.5c-0.8-1-1.8-2.2-3.8-2.2c-2,0-3,1.2-3.8,2.2c-0.8,1-1.3,1.5-2.3,1.5c-1,0-1.5-0.6-2.3-1.5
				c-0.8-1-1.8-2.2-3.8-2.2c-2,0-3,1.2-3.8,2.2c-0.8,1-1.3,1.5-2.3,1.5c-1,0-1.5-0.6-2.3-1.5c-0.8-1-1.8-2.2-3.8-2.2
				c-2,0-3,1.2-3.8,2.2c-0.8,1-1.3,1.5-2.3,1.5s-1.5-0.6-2.3-1.5c-0.8-1-1.8-2.2-3.8-2.2c-0.5,0-0.9,0.4-0.9,0.9s0.4,0.9,0.9,0.9
				c1,0,1.5,0.6,2.3,1.5c0.8,1,1.8,2.2,3.8,2.2s3-1.2,3.8-2.2c0.8-1,1.3-1.5,2.3-1.5c1,0,1.5,0.6,2.3,1.5c0.8,1,1.8,2.2,3.8,2.2
				c2,0,3-1.2,3.8-2.2c0.8-1,1.3-1.5,2.3-1.5c1,0,1.5,0.6,2.3,1.5c0.8,1,1.8,2.2,3.8,2.2c2,0,3-1.2,3.8-2.2c0.8-1,1.3-1.5,2.3-1.5
				c1,0,1.5,0.6,2.3,1.5c0.8,1,1.8,2.2,3.8,2.2c2,0,3-1.2,3.8-2.2c0.8-1,1.3-1.5,2.3-1.5c1,0,1.5,0.6,2.3,1.5c0.8,1,1.8,2.2,3.8,2.2
				c2,0,3-1.2,3.8-2.2c0.8-1,1.3-1.5,2.3-1.5c1,0,1.5,0.6,2.3,1.5c0.8,1,1.8,2.2,3.8,2.2c2,0,3-1.2,3.8-2.2c0.8-1,1.3-1.5,2.3-1.5
				c0.5,0,0.9-0.4,0.9-0.9S445.5,4.6,444.9,4.6z"/>
		</g>
	</g>
	<g>
		<g>
			<path class="st0" d="M519.2,4.6c-2,0-3,1.2-3.8,2.2c-0.8,1-1.3,1.5-2.3,1.5c-1,0-1.5-0.6-2.3-1.5c-0.8-1-1.8-2.2-3.8-2.2
				c-2,0-3,1.2-3.8,2.2c-0.8,1-1.3,1.5-2.3,1.5c-1,0-1.5-0.6-2.3-1.5c-0.8-1-1.8-2.2-3.8-2.2s-3,1.2-3.8,2.2c-0.8,1-1.3,1.5-2.3,1.5
				c-1,0-1.5-0.6-2.3-1.5c-0.8-1-1.8-2.2-3.8-2.2c-2,0-3,1.2-3.8,2.2c-0.8,1-1.3,1.5-2.3,1.5c-1,0-1.5-0.6-2.3-1.5
				c-0.8-1-1.8-2.2-3.8-2.2c-2,0-3,1.2-3.8,2.2c-0.8,1-1.3,1.5-2.3,1.5c-1,0-1.5-0.6-2.3-1.5c-0.8-1-1.8-2.2-3.8-2.2
				c-2,0-3,1.2-3.8,2.2c-0.8,1-1.3,1.5-2.3,1.5s-1.5-0.6-2.3-1.5c-0.8-1-1.8-2.2-3.8-2.2c-0.5,0-0.9,0.4-0.9,0.9s0.4,0.9,0.9,0.9
				c1,0,1.5,0.6,2.3,1.5c0.8,1,1.8,2.2,3.8,2.2s3-1.2,3.8-2.2c0.8-1,1.3-1.5,2.3-1.5c1,0,1.5,0.6,2.3,1.5c0.8,1,1.8,2.2,3.8,2.2
				c2,0,3-1.2,3.8-2.2c0.8-1,1.3-1.5,2.3-1.5c1,0,1.5,0.6,2.3,1.5c0.8,1,1.8,2.2,3.8,2.2c2,0,3-1.2,3.8-2.2c0.8-1,1.3-1.5,2.3-1.5
				c1,0,1.5,0.6,2.3,1.5c0.8,1,1.8,2.2,3.8,2.2c2,0,3-1.2,3.8-2.2c0.8-1,1.3-1.5,2.3-1.5c1,0,1.5,0.6,2.3,1.5c0.8,1,1.8,2.2,3.8,2.2
				c2,0,3-1.2,3.8-2.2c0.8-1,1.3-1.5,2.3-1.5c1,0,1.5,0.6,2.3,1.5c0.8,1,1.8,2.2,3.8,2.2c2,0,3-1.2,3.8-2.2c0.8-1,1.3-1.5,2.3-1.5
				c0.5,0,0.9-0.4,0.9-0.9S519.7,4.6,519.2,4.6z"/>
		</g>
		<g>
			<path class="st0" d="M592.6,4.6c-2,0-3,1.2-3.8,2.2c-0.8,1-1.3,1.5-2.3,1.5c-1,0-1.5-0.6-2.3-1.5c-0.8-1-1.8-2.2-3.8-2.2
				c-2,0-3,1.2-3.8,2.2c-0.8,1-1.3,1.5-2.3,1.5c-1,0-1.5-0.6-2.3-1.5c-0.8-1-1.8-2.2-3.8-2.2s-3,1.2-3.8,2.2c-0.8,1-1.3,1.5-2.3,1.5
				c-1,0-1.5-0.6-2.3-1.5c-0.8-1-1.8-2.2-3.8-2.2c-2,0-3,1.2-3.8,2.2c-0.8,1-1.3,1.5-2.3,1.5c-1,0-1.5-0.6-2.3-1.5
				c-0.8-1-1.8-2.2-3.8-2.2c-2,0-3,1.2-3.8,2.2c-0.8,1-1.3,1.5-2.3,1.5c-1,0-1.5-0.6-2.3-1.5c-0.8-1-1.8-2.2-3.8-2.2
				c-2,0-3,1.2-3.8,2.2c-0.8,1-1.3,1.5-2.3,1.5c-1,0-1.5-0.6-2.3-1.5c-0.8-1-1.8-2.2-3.8-2.2c-0.5,0-0.9,0.4-0.9,0.9
				s0.4,0.9,0.9,0.9c1,0,1.5,0.6,2.3,1.5c0.8,1,1.8,2.2,3.8,2.2s3-1.2,3.8-2.2c0.8-1,1.3-1.5,2.3-1.5c1,0,1.5,0.6,2.3,1.5
				c0.8,1,1.8,2.2,3.8,2.2c2,0,3-1.2,3.8-2.2c0.8-1,1.3-1.5,2.3-1.5c1,0,1.5,0.6,2.3,1.5c0.8,1,1.8,2.2,3.8,2.2c2,0,3-1.2,3.8-2.2
				c0.8-1,1.3-1.5,2.3-1.5c1,0,1.5,0.6,2.3,1.5c0.8,1,1.8,2.2,3.8,2.2c2,0,3-1.2,3.8-2.2c0.8-1,1.3-1.5,2.3-1.5c1,0,1.5,0.6,2.3,1.5
				c0.8,1,1.8,2.2,3.8,2.2c2,0,3-1.2,3.8-2.2c0.8-1,1.3-1.5,2.3-1.5c1,0,1.5,0.6,2.3,1.5c0.8,1,1.8,2.2,3.8,2.2c2,0,3-1.2,3.8-2.2
				c0.8-1,1.3-1.5,2.3-1.5c0.5,0,0.9-0.4,0.9-0.9S593.2,4.6,592.6,4.6z"/>
		</g>
	</g>
</g>
</svg>
